# Blender v2.62 (sub 0) OBJ File: 'cube.blend'
# www.blender.org
o Cube_Cube.002
v 0.5 -0.5 -0.5
v 0.5 -0.5 0.5
v -0.5 -0.5 0.5
v -0.5 -0.5 -0.5
v 0.5 0.5 -0.5
v 0.5 0.5 0.5
v -0.5 0.5 0.5
v -0.5 0.5 -0.5
vt 0.338526 0.338526
vt 0.663522 0.338526
vt 0.663522 0.663522
vt 0.338526 0.663522
vt 0.005288 0.005288
vt 0.329713 0.005288
vt 0.329713 0.329713
vt 0.005288 0.329713
vt 0.993727 0.662349
vt 0.670272 0.662349
vt 0.670272 0.338894
vt 0.993727 0.338894
vt 0.337449 0.004949
vt 0.663207 0.004949
vt 0.663338 0.330314
vt 0.337711 0.330838
vt 0.004502 0.336816
vt 0.331568 0.336816
vt 0.331568 0.663882
vt 0.004408 0.663882
vt 0.338744 0.670255
vt 0.664703 0.670255
vt 0.664703 0.995394
vt 0.338744 0.995394
vn 0.000000 -1.000000 0.000000
vn 0.000000 1.000000 0.000000
vn 1.000000 0.000000 0.000000
vn -0.000000 -0.000000 1.000000
vn -1.000000 -0.000000 -0.000000
vn 0.000000 0.000000 -1.000000
s off
f 1/1/1 2/2/1 3/3/1
f 1/1/1 3/3/1 4/4/1
f 5/5/2 8/6/2 7/7/2
f 5/5/2 7/7/2 6/8/2
f 1/9/3 5/10/3 6/11/3
f 1/9/3 6/11/3 2/12/3
f 2/13/4 6/14/4 7/15/4
f 2/13/4 7/15/4 3/16/4
f 3/17/5 7/18/5 8/19/5
f 3/17/5 8/19/5 4/20/5
f 5/21/6 1/22/6 4/23/6
f 5/21/6 4/23/6 8/24/6
