# Blender v2.62 (sub 0) OBJ File: 'shot.blend'
# www.blender.org
o Cube
v 0.070187 -0.054059 -0.053106
v 0.070187 -0.054059 0.071893
v -0.054813 -0.054059 0.071893
v -0.054813 -0.054059 -0.053107
v 0.070187 0.070941 -0.053106
v 0.070187 0.070941 0.071894
v -0.054813 0.070941 0.071893
v -0.054813 0.070941 -0.053106
v 0.007687 0.195941 0.009394
v 0.195187 0.008441 0.009394
v 0.007687 0.008441 0.196893
v 0.007687 0.008441 -0.178107
v -0.179813 0.008441 0.009393
v 0.007687 -0.179059 0.009393
vt 0.000000 1.000000
vt 0.000000 0.000000
vt 0.500000 0.500000
vt 0.999999 0.000000
vt 1.000000 1.000000
vt 1.000000 0.000000
vn -0.894427 0.447214 -0.000000
vn -0.000000 0.447214 0.894427
vn 0.000000 0.447214 -0.894427
vn 0.894427 0.447214 0.000000
vn 0.447214 0.894427 0.000000
vn 0.447213 -0.000000 0.894427
vn 0.447214 0.000000 -0.894427
vn 0.447214 -0.894427 0.000000
vn -0.000000 0.894427 0.447214
vn -0.894427 0.000000 0.447213
vn 0.894427 0.000000 0.447214
vn -0.000000 -0.894427 0.447214
vn 0.000000 0.894427 -0.447213
vn -0.894427 0.000000 -0.447214
vn 0.894427 -0.000000 -0.447213
vn 0.000000 -0.894427 -0.447214
vn -0.447214 0.894427 -0.000000
vn -0.447213 0.000000 -0.894427
vn -0.447214 0.000000 0.894427
vn -0.447214 -0.894427 -0.000000
vn -0.894427 -0.447214 -0.000000
vn -0.000000 -0.447214 0.894427
vn 0.000000 -0.447214 -0.894427
vn 0.894427 -0.447214 0.000000
s off
f 8/1/1 7/2/1 9/3/1
f 7/2/2 6/4/2 9/3/2
f 5/5/3 8/1/3 9/3/3
f 6/4/4 5/5/4 9/3/4
f 5/5/5 6/1/5 10/3/5
f 6/1/6 2/2/6 10/3/6
f 1/6/7 5/5/7 10/3/7
f 2/2/8 1/6/8 10/3/8
f 6/5/9 7/1/9 11/3/9
f 7/1/10 3/2/10 11/3/10
f 2/6/11 6/5/11 11/3/11
f 3/2/12 2/6/12 11/3/12
f 8/2/13 5/6/13 12/3/13
f 4/1/14 8/2/14 12/3/14
f 5/6/15 1/5/15 12/3/15
f 1/5/16 4/1/16 12/3/16
f 7/1/17 8/2/17 13/3/17
f 8/2/18 4/6/18 13/3/18
f 3/5/19 7/1/19 13/3/19
f 4/6/20 3/5/20 13/3/20
f 3/2/21 4/6/21 14/3/21
f 2/1/22 3/2/22 14/3/22
f 4/6/23 1/5/23 14/3/23
f 1/5/24 2/1/24 14/3/24
