# Blender v2.62 (sub 0) OBJ File: 'sphere.blend'
# www.blender.org
o Sphere_Sphere.003
v -0.382683 0.923880 0.000000
v -0.707107 0.707107 0.000000
v -0.923880 0.382683 0.000000
v -1.000000 -0.000000 0.000000
v -0.923880 -0.382684 0.000000
v -0.707107 -0.707107 0.000000
v -0.382683 -0.923880 0.000000
v -0.353553 0.923880 -0.146447
v -0.653281 0.707107 -0.270598
v -0.853553 0.382683 -0.353553
v -0.923880 -0.000000 -0.382683
v -0.853553 -0.382684 -0.353553
v -0.653281 -0.707107 -0.270598
v -0.353553 -0.923880 -0.146447
v -0.270598 0.923880 -0.270598
v -0.500000 0.707107 -0.500000
v -0.653282 0.382683 -0.653281
v -0.707107 -0.000000 -0.707107
v -0.653282 -0.382684 -0.653281
v -0.500000 -0.707107 -0.500000
v -0.270598 -0.923880 -0.270598
v -0.146447 0.923880 -0.353553
v -0.270598 0.707107 -0.653281
v -0.353553 0.382683 -0.853553
v -0.382683 -0.000000 -0.923879
v -0.353553 -0.382684 -0.853553
v -0.270598 -0.707107 -0.653281
v -0.146447 -0.923880 -0.353553
v -0.000000 0.923880 -0.382683
v -0.000000 0.707107 -0.707106
v -0.000000 0.382683 -0.923879
v -0.000000 -0.000000 -1.000000
v -0.000000 -0.382684 -0.923879
v -0.000000 -0.707107 -0.707106
v -0.000000 -0.923880 -0.382683
v -0.000000 1.000000 0.000000
v 0.146446 0.923880 -0.353553
v 0.270598 0.707107 -0.653281
v 0.353553 0.382683 -0.853553
v 0.382683 -0.000000 -0.923879
v 0.353553 -0.382684 -0.853553
v 0.270598 -0.707107 -0.653281
v 0.146446 -0.923880 -0.353553
v 0.270598 0.923880 -0.270598
v 0.500000 0.707107 -0.500000
v 0.653281 0.382683 -0.653281
v 0.707106 -0.000000 -0.707106
v 0.653281 -0.382684 -0.653281
v 0.500000 -0.707107 -0.500000
v 0.270598 -0.923880 -0.270598
v 0.353553 0.923880 -0.146446
v 0.653281 0.707107 -0.270598
v 0.853553 0.382683 -0.353553
v 0.923879 -0.000000 -0.382683
v 0.853553 -0.382684 -0.353553
v 0.653281 -0.707107 -0.270598
v 0.353553 -0.923880 -0.146446
v 0.382683 0.923880 0.000000
v 0.707106 0.707107 0.000000
v 0.923879 0.382683 0.000000
v 0.999999 -0.000000 0.000000
v 0.923879 -0.382684 0.000000
v 0.707106 -0.707107 0.000000
v 0.382683 -0.923880 0.000000
v 0.353553 0.923880 0.146447
v 0.653281 0.707107 0.270598
v 0.853553 0.382683 0.353553
v 0.923879 -0.000000 0.382683
v 0.853553 -0.382684 0.353553
v 0.653281 -0.707107 0.270598
v 0.353553 -0.923880 0.146447
v 0.270598 0.923880 0.270598
v 0.500000 0.707107 0.500000
v 0.653281 0.382683 0.653281
v 0.707106 -0.000000 0.707106
v 0.653281 -0.382684 0.653281
v 0.500000 -0.707107 0.500000
v 0.270598 -0.923880 0.270598
v 0.146446 0.923880 0.353553
v 0.270598 0.707107 0.653281
v 0.353553 0.382683 0.853553
v 0.382683 -0.000000 0.923879
v 0.353553 -0.382684 0.853553
v 0.270598 -0.707107 0.653281
v 0.146446 -0.923880 0.353553
v -0.000000 0.923880 0.382683
v -0.000000 0.707107 0.707106
v -0.000000 0.382683 0.923879
v -0.000000 -0.000000 0.999999
v -0.000000 -0.382684 0.923879
v -0.000000 -0.707107 0.707106
v -0.000000 -0.923880 0.382683
v -0.146447 0.923880 0.353553
v -0.270598 0.707107 0.653281
v -0.353553 0.382683 0.853553
v -0.382683 -0.000000 0.923879
v -0.353553 -0.382684 0.853553
v -0.270598 -0.707107 0.653281
v -0.146447 -0.923880 0.353553
v -0.000000 -1.000000 0.000000
v -0.270598 0.923880 0.270598
v -0.500000 0.707107 0.500000
v -0.653281 0.382683 0.653281
v -0.707107 -0.000000 0.707106
v -0.653281 -0.382684 0.653281
v -0.500000 -0.707107 0.500000
v -0.270598 -0.923880 0.270598
v -0.353553 0.923880 0.146446
v -0.653281 0.707107 0.270598
v -0.853553 0.382683 0.353553
v -0.923879 -0.000000 0.382683
v -0.853553 -0.382684 0.353553
v -0.653281 -0.707107 0.270598
v -0.353553 -0.923880 0.146446
vt 0.187500 0.691342
vt 0.187500 0.500000
vt 0.250000 0.500000
vt 0.187500 0.146447
vt 0.187500 0.038060
vt 0.250000 0.038060
vt 0.187500 0.853553
vt 0.250000 0.853553
vt 0.187500 0.308658
vt 0.250000 0.146447
vt 0.250000 0.961940
vt 0.187500 0.961940
vt 0.250000 0.308658
vt 0.125000 0.853553
vt 0.125000 0.691342
vt 0.125000 0.308658
vt 0.125000 0.146447
vt 0.125000 0.961940
vt 0.125000 0.500000
vt 0.125000 0.038060
vt 0.062500 0.853553
vt 0.062500 0.691342
vt 0.062500 0.308658
vt 0.062500 0.146447
vt 0.062500 0.961940
vt 0.062500 0.500000
vt 0.062500 0.038060
vt 0.000000 0.853553
vt 0.000000 0.691342
vt 0.000000 0.308658
vt 0.000000 0.146447
vt 0.000000 0.961940
vt 0.000000 0.500000
vt 0.000000 0.038060
vt 0.937500 0.853553
vt 0.937500 0.691342
vt 1.000000 0.691342
vt 0.937500 0.308658
vt 0.937500 0.146447
vt 1.000000 0.146447
vt 0.937500 0.961940
vt 1.000000 0.961940
vt 0.937500 0.500000
vt 1.000000 0.308658
vt 0.937500 0.038060
vt 1.000000 0.038060
vt 0.875000 0.853553
vt 0.875000 0.691342
vt 0.875000 0.308658
vt 0.875000 0.146447
vt 0.875000 0.961940
vt 0.875000 0.500000
vt 0.875000 0.038060
vt 0.812500 0.853553
vt 0.812500 0.691342
vt 0.812500 0.308658
vt 0.812500 0.146447
vt 0.812500 0.961940
vt 0.812500 0.500000
vt 0.812500 0.038060
vt 0.750000 0.853553
vt 0.750000 0.691342
vt 0.750000 0.308658
vt 0.750000 0.146447
vt 0.750000 0.961940
vt 0.750000 0.500000
vt 0.750000 0.038060
vt 0.687500 0.853553
vt 0.687500 0.691342
vt 0.687500 0.308658
vt 0.687500 0.146447
vt 0.687500 0.961940
vt 0.687500 0.500000
vt 0.687500 0.038060
vt 0.625000 0.853553
vt 0.625000 0.691342
vt 0.625000 0.308658
vt 0.625000 0.146447
vt 0.625000 0.961940
vt 0.625000 0.500000
vt 0.625000 0.038060
vt 0.562500 0.853553
vt 0.562500 0.691342
vt 0.562500 0.308658
vt 0.562500 0.146447
vt 0.562500 0.961940
vt 0.562500 0.500000
vt 0.562500 0.038060
vt 0.500000 0.853553
vt 0.500000 0.691342
vt 0.500000 0.308658
vt 0.500000 0.146447
vt 0.500000 0.961940
vt 0.500000 0.500000
vt 0.500000 0.038060
vt 0.437500 0.853553
vt 0.437500 0.691342
vt 0.437500 0.308658
vt 0.437500 0.146447
vt 0.437500 0.961940
vt 0.437500 0.500000
vt 0.437500 0.038060
vt 0.375000 0.853553
vt 0.375000 0.691342
vt 0.375000 0.308658
vt 0.375000 0.146447
vt 0.375000 0.961940
vt 0.375000 0.500000
vt 0.375000 0.038060
vt 0.312500 0.853553
vt 0.312500 0.691342
vt 0.312500 0.308658
vt 0.312500 0.146447
vt 0.312500 0.961940
vt 0.312500 0.500000
vt 0.312500 0.038060
vt 0.310912 1.000000
vt 0.307825 -0.000000
vt 1.307825 -0.000000
vt 1.310912 1.000000
vt 0.250000 0.691342
vt 1.000000 0.853553
vt 1.000000 0.500000
vn -0.856685 0.374340 -0.354839
vn -0.923856 0.000000 -0.382672
vn -1.000000 0.000000 0.000000
vn -0.664113 -0.695151 -0.275094
vn -0.372387 -0.915159 -0.154241
vn -0.403088 -0.915159 0.000000
vn -0.664113 0.695151 -0.275094
vn -0.718833 0.695151 0.000000
vn -0.856685 -0.374340 -0.354839
vn -0.718833 -0.695151 0.000000
vn -0.403088 0.915159 0.000000
vn -0.372387 0.915159 -0.154241
vn -0.927274 -0.374340 0.000000
vn -0.508286 0.695151 -0.508286
vn -0.655660 0.374340 -0.655660
vn -0.655660 -0.374340 -0.655660
vn -0.508286 -0.695151 -0.508286
vn -0.285012 0.915159 -0.285012
vn -0.707083 0.000000 -0.707083
vn -0.285012 -0.915159 -0.285012
vn -0.275094 0.695151 -0.664113
vn -0.354839 0.374340 -0.856685
vn -0.354839 -0.374340 -0.856685
vn -0.275094 -0.695151 -0.664113
vn -0.154241 0.915159 -0.372387
vn -0.382672 0.000000 -0.923856
vn -0.154241 -0.915159 -0.372387
vn 0.000000 0.695151 -0.718833
vn 0.000000 0.374340 -0.927274
vn 0.000000 -0.374340 -0.927274
vn 0.000000 -0.695151 -0.718833
vn 0.000000 0.915159 -0.403088
vn 0.000000 0.000000 -1.000000
vn 0.000000 -0.915159 -0.403088
vn 0.275094 0.695151 -0.664113
vn 0.354839 0.374340 -0.856685
vn 0.354839 -0.374340 -0.856685
vn 0.275094 -0.695151 -0.664113
vn 0.154241 0.915159 -0.372387
vn 0.382672 0.000000 -0.923856
vn 0.154241 -0.915159 -0.372387
vn 0.508286 0.695151 -0.508286
vn 0.655660 0.374340 -0.655660
vn 0.655660 -0.374340 -0.655660
vn 0.508286 -0.695151 -0.508286
vn 0.285012 0.915159 -0.285012
vn 0.707083 0.000000 -0.707083
vn 0.285012 -0.915159 -0.285012
vn 0.664113 0.695151 -0.275094
vn 0.856685 0.374340 -0.354839
vn 0.856685 -0.374340 -0.354839
vn 0.664113 -0.695151 -0.275094
vn 0.372387 0.915159 -0.154241
vn 0.923856 0.000000 -0.382672
vn 0.372387 -0.915159 -0.154241
vn 0.718833 0.695151 0.000000
vn 0.927274 0.374340 0.000000
vn 0.927274 -0.374340 0.000000
vn 0.718833 -0.695151 0.000000
vn 0.403088 0.915159 0.000000
vn 1.000000 0.000000 0.000000
vn 0.403088 -0.915159 0.000000
vn 0.664113 0.695151 0.275094
vn 0.856685 0.374340 0.354839
vn 0.856685 -0.374340 0.354839
vn 0.664113 -0.695151 0.275094
vn 0.372387 0.915159 0.154241
vn 0.923856 0.000000 0.382672
vn 0.372387 -0.915159 0.154241
vn 0.508286 0.695151 0.508286
vn 0.655660 0.374340 0.655660
vn 0.655660 -0.374340 0.655660
vn 0.508286 -0.695151 0.508286
vn 0.285012 0.915159 0.285012
vn 0.707083 0.000000 0.707083
vn 0.285012 -0.915159 0.285012
vn 0.275094 0.695151 0.664113
vn 0.354839 0.374340 0.856685
vn 0.354839 -0.374340 0.856685
vn 0.275094 -0.695151 0.664113
vn 0.154241 0.915159 0.372387
vn 0.382672 0.000000 0.923856
vn 0.154241 -0.915159 0.372387
vn 0.000000 0.695151 0.718833
vn 0.000000 0.374340 0.927274
vn 0.000000 -0.374340 0.927274
vn 0.000000 -0.695151 0.718833
vn 0.000000 0.915159 0.403088
vn 0.000000 0.000000 1.000000
vn 0.000000 -0.915159 0.403088
vn -0.275094 0.695151 0.664113
vn -0.354839 0.374340 0.856685
vn -0.354839 -0.374340 0.856685
vn -0.275094 -0.695151 0.664113
vn -0.154241 0.915159 0.372387
vn -0.382672 0.000000 0.923856
vn -0.154241 -0.915159 0.372387
vn -0.508286 0.695151 0.508286
vn -0.655660 0.374340 0.655660
vn -0.655660 -0.374340 0.655660
vn -0.508286 -0.695151 0.508286
vn -0.285012 0.915159 0.285012
vn -0.707083 0.000000 0.707083
vn -0.285012 -0.915159 0.285012
vn -0.664113 0.695151 0.275094
vn -0.856685 0.374340 0.354839
vn -0.856685 -0.374340 0.354839
vn -0.664113 -0.695151 0.275094
vn -0.372387 0.915159 0.154241
vn -0.923856 0.000000 0.382672
vn -0.372387 -0.915159 0.154241
vn 0.000000 1.000000 0.000000
vn 0.000000 -0.999969 0.000000
vn -0.927274 0.374340 0.000000
s 1
f 10/1/1 11/2/2 4/3/3
f 13/4/4 14/5/5 7/6/6
f 9/7/7 10/1/1 2/8/8
f 12/9/9 13/4/4 6/10/10
f 9/7/7 1/11/11 8/12/12
f 11/2/2 12/9/9 5/13/13
f 16/14/14 17/15/15 9/7/7
f 19/16/16 20/17/17 13/4/4
f 15/18/18 16/14/14 8/12/12
f 18/19/19 19/16/16 12/9/9
f 17/15/15 18/19/19 11/2/2
f 20/17/17 21/20/20 14/5/5
f 23/21/21 24/22/22 16/14/14
f 26/23/23 27/24/24 20/17/17
f 22/25/25 23/21/21 15/18/18
f 25/26/26 26/23/23 19/16/16
f 24/22/22 25/26/26 18/19/19
f 27/24/24 28/27/27 21/20/20
f 30/28/28 31/29/29 24/22/22
f 33/30/30 34/31/31 27/24/24
f 29/32/32 30/28/28 22/25/25
f 32/33/33 33/30/30 26/23/23
f 31/29/29 32/33/33 25/26/26
f 34/31/31 35/34/34 28/27/27
f 38/35/35 39/36/36 31/37/29
f 41/38/37 42/39/38 34/40/31
f 37/41/39 38/35/35 29/42/32
f 40/43/40 41/38/37 33/44/30
f 39/36/36 40/43/40 31/37/29
f 42/39/38 43/45/41 35/46/34
f 45/47/42 46/48/43 39/36/36
f 48/49/44 49/50/45 42/39/38
f 44/51/46 45/47/42 37/41/39
f 47/52/47 48/49/44 41/38/37
f 46/48/43 47/52/47 39/36/36
f 49/50/45 50/53/48 43/45/41
f 52/54/49 53/55/50 46/48/43
f 55/56/51 56/57/52 49/50/45
f 51/58/53 52/54/49 44/51/46
f 54/59/54 55/56/51 48/49/44
f 53/55/50 54/59/54 46/48/43
f 56/57/52 57/60/55 50/53/48
f 59/61/56 60/62/57 53/55/50
f 62/63/58 63/64/59 56/57/52
f 58/65/60 59/61/56 51/58/53
f 61/66/61 62/63/58 55/56/51
f 60/62/57 61/66/61 53/55/50
f 63/64/59 64/67/62 57/60/55
f 66/68/63 67/69/64 60/62/57
f 69/70/65 70/71/66 62/63/58
f 65/72/67 66/68/63 58/65/60
f 68/73/68 69/70/65 62/63/58
f 67/69/64 68/73/68 60/62/57
f 70/71/66 71/74/69 64/67/62
f 73/75/70 74/76/71 67/69/64
f 76/77/72 77/78/73 69/70/65
f 72/79/74 73/75/70 65/72/67
f 75/80/75 76/77/72 69/70/65
f 74/76/71 75/80/75 67/69/64
f 77/78/73 78/81/76 71/74/69
f 80/82/77 81/83/78 74/76/71
f 83/84/79 84/85/80 76/77/72
f 79/86/81 80/82/77 73/75/70
f 82/87/82 83/84/79 76/77/72
f 81/83/78 82/87/82 74/76/71
f 84/85/80 85/88/83 78/81/76
f 87/89/84 88/90/85 81/83/78
f 90/91/86 91/92/87 83/84/79
f 86/93/88 87/89/84 79/86/81
f 89/94/89 90/91/86 83/84/79
f 88/90/85 89/94/89 81/83/78
f 91/92/87 92/95/90 85/88/83
f 94/96/91 95/97/92 88/90/85
f 97/98/93 98/99/94 90/91/86
f 93/100/95 94/96/91 86/93/88
f 96/101/96 97/98/93 90/91/86
f 95/97/92 96/101/96 88/90/85
f 98/99/94 99/102/97 92/95/90
f 102/103/98 103/104/99 95/97/92
f 105/105/100 106/106/101 97/98/93
f 101/107/102 102/103/98 93/100/95
f 104/108/103 105/105/100 97/98/93
f 103/104/99 104/108/103 95/97/92
f 106/106/101 107/109/104 99/102/97
f 109/110/105 110/111/106 103/104/99
f 112/112/107 113/113/108 105/105/100
f 108/114/109 109/110/105 102/103/98
f 111/115/110 112/112/107 105/105/100
f 110/111/106 111/115/110 103/104/99
f 113/113/108 114/116/111 106/106/101
f 8/12/12 1/11/11 36/117/112
f 14/5/5 100/118/113 7/6/6
f 21/20/20 100/118/113 14/5/5
f 36/117/112 15/18/18 8/12/12
f 28/27/27 100/118/113 21/20/20
f 36/117/112 22/25/25 15/18/18
f 35/34/34 100/118/113 28/27/27
f 36/117/112 29/32/32 22/25/25
f 43/45/41 100/119/113 35/46/34
f 36/120/112 37/41/39 29/42/32
f 50/53/48 100/119/113 43/45/41
f 36/120/112 44/51/46 37/41/39
f 57/60/55 100/119/113 50/53/48
f 36/120/112 51/58/53 44/51/46
f 64/67/62 100/119/113 57/60/55
f 36/120/112 58/65/60 51/58/53
f 71/74/69 100/118/113 64/67/62
f 36/117/112 65/72/67 58/65/60
f 78/81/76 100/118/113 71/74/69
f 36/117/112 72/79/74 65/72/67
f 85/88/83 100/118/113 78/81/76
f 36/117/112 79/86/81 72/79/74
f 92/95/90 100/118/113 85/88/83
f 36/117/112 86/93/88 79/86/81
f 99/102/97 100/118/113 92/95/90
f 36/117/112 93/100/95 86/93/88
f 107/109/104 100/118/113 99/102/97
f 36/117/112 101/107/102 93/100/95
f 114/116/111 100/118/113 107/109/104
f 36/117/112 108/114/109 101/107/102
f 2/8/8 3/121/114 110/111/106
f 5/13/13 6/10/10 112/112/107
f 1/11/11 2/8/8 109/110/105
f 4/3/3 5/13/13 111/115/110
f 7/6/6 100/118/113 114/116/111
f 36/117/112 1/11/11 108/114/109
f 3/121/114 4/3/3 111/115/110
f 6/10/10 7/6/6 113/113/108
f 3/121/114 10/1/1 4/3/3
f 6/10/10 13/4/4 7/6/6
f 10/1/1 3/121/114 2/8/8
f 5/13/13 12/9/9 6/10/10
f 2/8/8 1/11/11 9/7/7
f 4/3/3 11/2/2 5/13/13
f 17/15/15 10/1/1 9/7/7
f 12/9/9 19/16/16 13/4/4
f 16/14/14 9/7/7 8/12/12
f 11/2/2 18/19/19 12/9/9
f 10/1/1 17/15/15 11/2/2
f 13/4/4 20/17/17 14/5/5
f 24/22/22 17/15/15 16/14/14
f 19/16/16 26/23/23 20/17/17
f 23/21/21 16/14/14 15/18/18
f 18/19/19 25/26/26 19/16/16
f 17/15/15 24/22/22 18/19/19
f 20/17/17 27/24/24 21/20/20
f 23/21/21 30/28/28 24/22/22
f 26/23/23 33/30/30 27/24/24
f 30/28/28 23/21/21 22/25/25
f 25/26/26 32/33/33 26/23/23
f 24/22/22 31/29/29 25/26/26
f 27/24/24 34/31/31 28/27/27
f 30/122/28 38/35/35 31/37/29
f 33/44/30 41/38/37 34/40/31
f 38/35/35 30/122/28 29/42/32
f 32/123/33 40/43/40 33/44/30
f 40/43/40 32/123/33 31/37/29
f 34/40/31 42/39/38 35/46/34
f 38/35/35 45/47/42 39/36/36
f 41/38/37 48/49/44 42/39/38
f 45/47/42 38/35/35 37/41/39
f 40/43/40 47/52/47 41/38/37
f 47/52/47 40/43/40 39/36/36
f 42/39/38 49/50/45 43/45/41
f 45/47/42 52/54/49 46/48/43
f 48/49/44 55/56/51 49/50/45
f 52/54/49 45/47/42 44/51/46
f 47/52/47 54/59/54 48/49/44
f 54/59/54 47/52/47 46/48/43
f 49/50/45 56/57/52 50/53/48
f 52/54/49 59/61/56 53/55/50
f 55/56/51 62/63/58 56/57/52
f 59/61/56 52/54/49 51/58/53
f 54/59/54 61/66/61 55/56/51
f 61/66/61 54/59/54 53/55/50
f 56/57/52 63/64/59 57/60/55
f 59/61/56 66/68/63 60/62/57
f 70/71/66 63/64/59 62/63/58
f 66/68/63 59/61/56 58/65/60
f 61/66/61 68/73/68 62/63/58
f 68/73/68 61/66/61 60/62/57
f 63/64/59 70/71/66 64/67/62
f 66/68/63 73/75/70 67/69/64
f 77/78/73 70/71/66 69/70/65
f 73/75/70 66/68/63 65/72/67
f 68/73/68 75/80/75 69/70/65
f 75/80/75 68/73/68 67/69/64
f 70/71/66 77/78/73 71/74/69
f 73/75/70 80/82/77 74/76/71
f 84/85/80 77/78/73 76/77/72
f 72/79/74 79/86/81 73/75/70
f 75/80/75 82/87/82 76/77/72
f 82/87/82 75/80/75 74/76/71
f 77/78/73 84/85/80 78/81/76
f 80/82/77 87/89/84 81/83/78
f 91/92/87 84/85/80 83/84/79
f 87/89/84 80/82/77 79/86/81
f 82/87/82 89/94/89 83/84/79
f 89/94/89 82/87/82 81/83/78
f 84/85/80 91/92/87 85/88/83
f 87/89/84 94/96/91 88/90/85
f 98/99/94 91/92/87 90/91/86
f 94/96/91 87/89/84 86/93/88
f 89/94/89 96/101/96 90/91/86
f 96/101/96 89/94/89 88/90/85
f 91/92/87 98/99/94 92/95/90
f 94/96/91 102/103/98 95/97/92
f 106/106/101 98/99/94 97/98/93
f 102/103/98 94/96/91 93/100/95
f 96/101/96 104/108/103 97/98/93
f 104/108/103 96/101/96 95/97/92
f 98/99/94 106/106/101 99/102/97
f 102/103/98 109/110/105 103/104/99
f 113/113/108 106/106/101 105/105/100
f 101/107/102 108/114/109 102/103/98
f 104/108/103 111/115/110 105/105/100
f 111/115/110 104/108/103 103/104/99
f 114/116/111 107/109/104 106/106/101
f 109/110/105 2/8/8 110/111/106
f 6/10/10 113/113/108 112/112/107
f 108/114/109 1/11/11 109/110/105
f 5/13/13 112/112/107 111/115/110
f 110/111/106 3/121/114 111/115/110
f 7/6/6 114/116/111 113/113/108
